<svg width="54" height="47" viewBox="0 0 54 47" fill="none" xmlns="http://www.w3.org/2000/svg">
<path fill-rule="evenodd" clip-rule="evenodd" d="M41.6209 6.99976C37.0012 8.07396 31.0672 10.9467 24.981 15.4463C18.8948 19.9459 13.985 25.0902 10.9486 29.6762C9.42352 31.9796 8.34203 33.6807 7.88559 35.3097C7.49513 36.7031 7.10466 36.8097 7.02009 39.7404C7.80102 43.7404 11.6412 44.456 12.9843 44.7674C14.3142 45.0757 16.1728 45.0209 18.4932 44.4813C23.1129 43.4071 29.0469 40.5344 35.1331 36.0348C41.2192 31.5352 46.1291 26.3909 49.1654 21.8049C50.6906 19.5014 51.6569 17.4677 52.1133 15.8388C52.7044 13.7404 53.0949 10.2404 50.7521 8.24039C50.5822 7.86365 48.581 7.05176 47.2379 6.74039C45.908 6.4321 43.9413 6.4602 41.6209 6.99976ZM47.9644 0.809663C50.0353 1.28974 52.0562 2.49752 53.1803 4.99054C54.3043 7.48355 54.1107 10.3286 53.3999 12.8652C52.6845 15.4181 51.3426 18.0767 49.6157 20.685C46.148 25.9226 40.7786 31.4797 34.3521 36.2309C27.9257 40.9821 21.4827 44.1579 16.2066 45.3848C13.5792 45.9957 11.1102 46.1546 9.02594 45.6714C6.95502 45.1913 4.93413 43.9836 3.8101 41.4905C2.68608 38.9975 2.8797 36.1525 3.59048 33.6159C4.30583 31.063 5.64775 28.4044 7.37468 25.7961C10.8424 20.5585 16.2117 15.0013 22.6382 10.2502C29.0647 5.49897 35.5077 2.32313 40.7837 1.0963C43.4112 0.48534 45.8802 0.326506 47.9644 0.809663Z" fill="url(#paint0_linear_2491_11469)"/>
<path fill-rule="evenodd" clip-rule="evenodd" d="M43.2175 30.1762C40.1812 25.5902 35.2713 20.4459 29.1851 15.9463C23.099 11.4467 17.165 8.57396 12.5453 7.49976C10.2248 6.9602 8.53364 6.6114 7.20377 6.91969C6.06613 7.18341 5.79885 6.80366 3.77451 8.17524C1.45976 11.0413 2.89587 15.6577 3.35687 17.3029C3.81331 18.9318 4.77964 20.9655 6.30475 23.269C9.34109 27.855 14.2509 32.9993 20.3371 37.4989C26.4233 41.9985 32.3573 44.8712 36.977 45.9454C39.2974 46.485 41.156 46.5398 42.4859 46.2315C44.2005 45.8377 46.7628 44.5207 46.9441 40.9227C47.1139 40.5459 46.6624 37.9208 46.2014 36.2756C45.745 34.6466 44.7426 32.4796 43.2175 30.1762ZM50.5757 34.1159C51.2864 36.6525 51.4801 39.4975 50.356 41.9905C49.232 44.4836 47.2111 45.6913 45.1402 46.1714C43.056 46.6546 40.587 46.4957 37.9595 45.8848C32.6835 44.6579 26.2405 41.4821 19.814 36.7309C13.3875 31.9797 8.0182 26.4226 4.55046 21.185C2.82353 18.5767 1.48161 15.9181 0.766265 13.3652C0.0554833 10.8286 -0.138139 7.98355 0.985885 5.49053C2.10991 2.99752 4.1308 1.78974 6.20173 1.30966C8.28594 0.826506 10.7549 0.985341 13.3824 1.5963C18.6585 2.82313 25.1014 5.99897 31.5279 10.7502C37.9544 15.5013 43.3237 21.0585 46.7915 26.2961C48.5184 28.9044 49.8603 31.563 50.5757 34.1159Z" fill="url(#paint1_linear_2491_11469)"/>
<path d="M34 28C34 31.866 30.866 35 27 35C23.134 35 20 31.866 20 28C20 24.134 23.134 21 27 21C30.866 21 34 24.134 34 28Z" fill="url(#paint2_radial_2491_11469)"/>
<path d="M14 13.5C14 15.9853 11.9853 18 9.5 18C7.01472 18 5 15.9853 5 13.5C5 11.0147 7.01472 9 9.5 9C11.9853 9 14 11.0147 14 13.5Z" fill="url(#paint3_radial_2491_11469)"/>
<path d="M49 13.5C49 15.9853 46.9853 18 44.5 18C42.0147 18 40 15.9853 40 13.5C40 11.0147 42.0147 9 44.5 9C46.9853 9 49 11.0147 49 13.5Z" fill="url(#paint4_radial_2491_11469)"/>
<path d="M43 39.5C43 40.8807 41.8807 42 40.5 42C39.1193 42 38 40.8807 38 39.5C38 38.1193 39.1193 37 40.5 37C41.8807 37 43 38.1193 43 39.5Z" fill="url(#paint5_radial_2491_11469)"/>
<path d="M15 39.5C15 40.8807 13.8807 42 12.5 42C11.1193 42 10 40.8807 10 39.5C10 38.1193 11.1193 37 12.5 37C13.8807 37 15 38.1193 15 39.5Z" fill="url(#paint6_radial_2491_11469)"/>
<defs>
<linearGradient id="paint0_linear_2491_11469" x1="51.2363" y1="6.55954" x2="1.02659" y2="29.1975" gradientUnits="userSpaceOnUse">
<stop stop-color="#001AFF"/>
<stop offset="0.5" stop-color="#00CCFF"/>
<stop offset="1" stop-color="#0073FF"/>
</linearGradient>
<linearGradient id="paint1_linear_2491_11469" x1="48.3226" y1="40.6192" x2="-1.88707" y2="17.9812" gradientUnits="userSpaceOnUse">
<stop stop-color="#001AFF"/>
<stop offset="0.5" stop-color="#00CCFF"/>
<stop offset="1" stop-color="#0073FF"/>
</linearGradient>
<radialGradient id="paint2_radial_2491_11469" cx="0" cy="0" r="1" gradientUnits="userSpaceOnUse" gradientTransform="translate(27 28) rotate(90) scale(7)">
<stop stop-color="#00CCFF"/>
<stop offset="1" stop-color="#001AFF"/>
</radialGradient>
<radialGradient id="paint3_radial_2491_11469" cx="0" cy="0" r="1" gradientUnits="userSpaceOnUse" gradientTransform="translate(9.5 13.5) rotate(90) scale(4.5)">
<stop stop-color="#00CCFF"/>
<stop offset="1" stop-color="#001AFF"/>
</radialGradient>
<radialGradient id="paint4_radial_2491_11469" cx="0" cy="0" r="1" gradientUnits="userSpaceOnUse" gradientTransform="translate(44.5 13.5) rotate(90) scale(4.5)">
<stop stop-color="#00CCFF"/>
<stop offset="1" stop-color="#001AFF"/>
</radialGradient>
<radialGradient id="paint5_radial_2491_11469" cx="0" cy="0" r="1" gradientUnits="userSpaceOnUse" gradientTransform="translate(40.5 39.5) rotate(90) scale(2.5)">
<stop stop-color="#00CCFF"/>
<stop offset="1" stop-color="#001AFF"/>
</radialGradient>
<radialGradient id="paint6_radial_2491_11469" cx="0" cy="0" r="1" gradientUnits="userSpaceOnUse" gradientTransform="translate(12.5 39.5) rotate(90) scale(2.5)">
<stop stop-color="#00CCFF"/>
<stop offset="1" stop-color="#001AFF"/>
</radialGradient>
</defs>
</svg>
